<?xml version="1.0" encoding="UTF-8"?>
<svg version="1.1" xmlns="http://www.w3.org/2000/svg" width="352" height="290">
<path d="M0 0 C116.16 0 232.32 0 352 0 C352 95.7 352 191.4 352 290 C235.84 290 119.68 290 0 290 C0 194.3 0 98.6 0 0 Z " fill="#F3F9FE" transform="translate(0,0)"/>
<path d="M0 0 C1.67739862 0.98189187 3.34467377 1.98133771 5 3 C7.19130534 3.69579454 7.19130534 3.69579454 9 4 C9 4.66 9 5.32 9 6 C9.845625 6.2475 10.69125 6.495 11.5625 6.75 C14.21621081 7.71498575 16.23831146 8.64492042 18.625 10.0625 C21.26426698 11.57763475 23.05818943 12.52931031 26 13 C26 13.66 26 14.32 26 15 C26.84304687 15.25910156 27.68609375 15.51820312 28.5546875 15.78515625 C32.22675661 17.07995613 35.65886652 18.68207111 39.125 20.4375 C39.73214844 20.73720703 40.33929688 21.03691406 40.96484375 21.34570312 C44.23561904 22.98821664 47.08293049 24.81219786 50 27 C51.85385171 27.91895801 53.73065357 28.79271302 55.625 29.625 C56.58664063 30.05039062 57.54828125 30.47578125 58.5390625 30.9140625 C59.35117188 31.27242187 60.16328125 31.63078125 61 32 C61.66 32.33 62.32 32.66 63 33 C63 33.66 63 34.32 63 35 C63.80050781 35.22042969 63.80050781 35.22042969 64.6171875 35.4453125 C68.92209784 36.74125437 72.66258942 38.26979102 76.46875 40.67578125 C83.8135758 45.17450408 91.51721874 48.97032413 99.1875 52.87695312 C116.33652779 61.67305558 116.33652779 61.67305558 118 65 C118.06996014 66.70702735 118.08440154 68.41668003 118.0625 70.125 C118.05347656 71.03507812 118.04445313 71.94515625 118.03515625 72.8828125 C118.01775391 73.93082031 118.01775391 73.93082031 118 75 C112.375 78 112.375 78 109 78 C109 78.66 109 79.32 109 80 C107.37750059 80.83819158 105.75191503 81.6704116 104.125 82.5 C103.22007812 82.9640625 102.31515625 83.428125 101.3828125 83.90625 C99 85 99 85 97 85 C96.99466604 89.48510033 97.02827971 93.96772619 97.09765625 98.45214844 C97.11579913 99.97679846 97.12338779 101.50161273 97.12011719 103.02636719 C97.11725457 105.22199104 97.15261171 107.41422194 97.1953125 109.609375 C97.20578613 110.92905273 97.21625977 112.24873047 97.22705078 113.60839844 C97.68381035 117.25920639 97.68381035 117.25920639 100.98779297 119.33691406 C102.47883545 120.1601416 102.47883545 120.1601416 104 121 C105.17426264 123.34852528 105.11508173 124.73774065 105.09765625 127.3515625 C105.09443359 128.20234375 105.09121094 129.053125 105.08789062 129.9296875 C105.07951172 130.81914062 105.07113281 131.70859375 105.0625 132.625 C105.05798828 133.5221875 105.05347656 134.419375 105.04882812 135.34375 C105.03702591 137.56256648 105.02056155 139.78125018 105 142 C101.24023438 143.12451172 101.24023438 143.12451172 99.078125 142.00390625 C98.47484375 141.52824219 97.8715625 141.05257812 97.25 140.5625 C96.63640625 140.08941406 96.0228125 139.61632812 95.390625 139.12890625 C94.70226562 138.57009766 94.70226562 138.57009766 94 138 C93.52949219 138.37253906 93.05898438 138.74507812 92.57421875 139.12890625 C91.95160156 139.60199219 91.32898438 140.07507813 90.6875 140.5625 C90.07261719 141.03816406 89.45773437 141.51382813 88.82421875 142.00390625 C88.22222656 142.33261719 87.62023437 142.66132813 87 143 C86.01 142.67 85.02 142.34 84 142 C83.89123018 139.14479219 83.81233534 136.29379439 83.75 133.4375 C83.71648437 132.63763672 83.68296875 131.83777344 83.6484375 131.01367188 C83.55255874 125.14109807 84.68758595 121.85777258 88 117 C88.99 117 89.98 117 91 117 C91 108.09 91 99.18 91 90 C86.15155901 92.29949937 86.15155901 92.29949937 81.30712891 94.60742188 C76.22222222 97 76.22222222 97 74 97 C73.67 97.99 73.34 98.98 73 100 C70.36054527 101.36503362 67.79844273 102.55481498 65.0625 103.6875 C64.32064453 104.00783203 63.57878906 104.32816406 62.81445312 104.65820312 C57.30698627 107 57.30698627 107 55 107 C55 107.66 55 108.32 55 109 C52.21128823 110.33957921 49.41856938 111.67058435 46.625 113 C45.8309375 113.3815625 45.036875 113.763125 44.21875 114.15625 C43.45820313 114.5171875 42.69765625 114.878125 41.9140625 115.25 C41.2123291 115.58515625 40.5105957 115.9203125 39.78759766 116.265625 C38 117 38 117 36 117 C36 117.66 36 118.32 36 119 C34.04414675 120.00484204 32.08523763 121.00373805 30.125 122 C29.03445312 122.556875 27.94390625 123.11375 26.8203125 123.6875 C24 125 24 125 22 125 C21.67 125.99 21.34 126.98 21 128 C19.29760742 129.02734375 19.29760742 129.02734375 17.10546875 129.9375 C15.91920898 130.44410156 15.91920898 130.44410156 14.70898438 130.9609375 C13.46084961 131.47527344 13.46084961 131.47527344 12.1875 132 C10.55396351 132.68267197 8.92237773 133.37003422 7.29296875 134.0625 C6.5661792 134.36285156 5.83938965 134.66320312 5.09057617 134.97265625 C2.9118549 135.95190409 2.9118549 135.95190409 0.94262695 137.62890625 C-1 139 -1 139 -4.375 138.875 C-12.70264769 136.86487814 -20.30012879 131.57837047 -27.76953125 127.47070312 C-33.12932895 124.53347517 -38.51263751 121.69179129 -44 119 C-44 118.34 -44 117.68 -44 117 C-44.53367187 116.84144531 -45.06734375 116.68289062 -45.6171875 116.51953125 C-51.74868303 114.59946085 -57.32459514 111.99765643 -63 109 C-63 108.34 -63 107.68 -63 107 C-63.845625 106.73960937 -64.69125 106.47921875 -65.5625 106.2109375 C-69.19096508 104.93272821 -72.57667137 103.36129891 -76 101.625 C-76.67208496 101.28702393 -77.34416992 100.94904785 -78.03662109 100.60083008 C-85.26089392 96.93028948 -92.3636883 93.03459644 -99.4609375 89.12548828 C-103.93503715 86.66133911 -108.40694759 84.23548896 -113 82 C-113 81.34 -113 80.68 -113 80 C-114.0209375 79.5978125 -114.0209375 79.5978125 -115.0625 79.1875 C-118.39710809 77.83946694 -121.69743237 76.42463702 -125 75 C-125.47039725 70.90362397 -125.68786865 67.07922106 -125 63 C-122.74900314 60.4053395 -120.11668105 59.33727996 -117 58 C-115.74249799 57.24146673 -114.49184766 56.4713995 -113.25 55.6875 C-110 54 -110 54 -106 54 C-106 53.34 -106 52.68 -106 52 C-101.98009388 49.91816732 -97.95990218 47.8368875 -93.93945312 45.75610352 C-92.57381595 45.04922155 -91.20825482 44.34219264 -89.84277344 43.63500977 C-87.87194826 42.6143525 -85.9008437 41.59423654 -83.9296875 40.57421875 C-83.32631561 40.26159592 -82.72294373 39.94897308 -82.10128784 39.62687683 C-80.40245933 38.74814955 -78.70126997 37.87399111 -77 37 C-75.9083252 36.43128174 -74.81665039 35.86256348 -73.69189453 35.27661133 C-71 34 -71 34 -69 34 C-69 33.34 -69 32.68 -69 32 C-64.96570673 29.87397817 -60.92716326 27.75634429 -56.88452148 25.64624023 C-55.51093617 24.92780672 -54.13852301 24.20712739 -52.76733398 23.48413086 C-50.79196946 22.44307005 -48.81247873 21.41025779 -46.83203125 20.37890625 C-46.22349808 20.05596085 -45.6149649 19.73301544 -44.98799133 19.40028381 C-41.6779616 17.68751599 -38.69856711 16.51529913 -35 16 C-35 15.34 -35 14.68 -35 14 C-31.21117591 12.02168359 -27.42086361 10.04625738 -23.62915039 8.07348633 C-22.33967545 7.40207733 -21.05060927 6.72988267 -19.76196289 6.05688477 C-17.908787 5.08923416 -16.05415566 4.12442583 -14.19921875 3.16015625 C-13.08377686 2.57886963 -11.96833496 1.99758301 -10.8190918 1.39868164 C-6.643699 -0.67292357 -4.47440318 -1.27840091 0 0 Z " fill="#2E68A3" transform="translate(178,29)"/>
<path d="M0 0 C3.90039181 0.7243274 7.18383335 1.81790856 10.81640625 3.43359375 C11.91017578 3.91763672 13.00394531 4.40167969 14.13085938 4.90039062 C15.26330078 5.40763672 16.39574219 5.91488281 17.5625 6.4375 C18.69880859 6.94087891 19.83511719 7.44425781 21.00585938 7.96289062 C30.00567972 11.9610409 30.00567972 11.9610409 34 14 C34 14.66 34 15.32 34 16 C34.5671875 16.1134375 35.134375 16.226875 35.71875 16.34375 C41.42429753 17.98507189 46.53795872 21.81788688 51.1796875 25.43359375 C51.71142578 25.84738281 52.24316406 26.26117188 52.79101562 26.6875 C54.31670293 27.89149492 55.82668103 29.11531509 57.3359375 30.33984375 C59.7714053 32.19041018 59.7714053 32.19041018 62.08203125 31.97265625 C64.47940884 30.75687821 66.28294626 29.26665818 68.3125 27.5 C77.39979449 20.03209083 93.1073693 8 105 8 C105 7.34 105 6.68 105 6 C106.32 6 107.64 6 109 6 C109 5.34 109 4.68 109 4 C114.0776214 1.89891528 117.46663758 0.92047862 123 1 C123.0462955 8.26692328 123.08185493 15.53381488 123.10362434 22.80085564 C123.11407142 26.17506994 123.12824725 29.54918352 123.15087891 32.92333984 C123.17504885 36.80048318 123.18646511 40.67748277 123.1953125 44.5546875 C123.20563507 45.76929657 123.21595764 46.98390564 123.22659302 48.23532104 C123.22674408 49.35633209 123.22689514 50.47734314 123.22705078 51.63232422 C123.231492 52.62271698 123.23593323 53.61310974 123.24050903 54.6335144 C123 57 123 57 121 59 C119.47606814 59.58972076 117.92983493 60.12237964 116.375 60.625 C97.05936349 67.52524042 74.62796609 80.55805086 63 98 C58.91809745 97.48048513 57.23139692 95.44990867 54.5 92.5 C49.79369259 87.61105977 44.8114312 83.71838976 39.2734375 79.8125 C38.52320313 79.214375 37.77296875 78.61625 37 78 C37 77.34 37 76.68 37 76 C36.13246094 75.74605469 35.26492187 75.49210937 34.37109375 75.23046875 C30.87243621 73.95343848 28.1730732 72.35018566 25.0625 70.3125 C18.99124141 66.42653684 12.6895274 63.38290253 6.1171875 60.4453125 C3 59 3 59 0 57 C-0.36076355 54.59555054 -0.36076355 54.59555054 -0.34057617 51.54052734 C-0.34034958 50.39949554 -0.34012299 49.25846375 -0.33988953 48.08285522 C-0.32440567 46.84637238 -0.30892181 45.60988953 -0.29296875 44.3359375 C-0.28872391 43.07359283 -0.28447906 41.81124817 -0.28010559 40.51065063 C-0.26613137 37.15338649 -0.23917302 33.79673068 -0.20599365 30.43963623 C-0.17531352 27.01449852 -0.1616047 23.58929799 -0.14648438 20.1640625 C-0.11334641 13.4425395 -0.06309539 6.72130489 0 0 Z " fill="#1E3F5D" transform="translate(113,151)"/>
<path d="M0 0 C3.90039181 0.7243274 7.18383335 1.81790856 10.81640625 3.43359375 C11.91017578 3.91763672 13.00394531 4.40167969 14.13085938 4.90039062 C15.26330078 5.40763672 16.39574219 5.91488281 17.5625 6.4375 C18.69880859 6.94087891 19.83511719 7.44425781 21.00585938 7.96289062 C30.00567972 11.9610409 30.00567972 11.9610409 34 14 C34 14.66 34 15.32 34 16 C34.5671875 16.1134375 35.134375 16.226875 35.71875 16.34375 C43.8174097 18.67350142 50.83963561 24.99179366 57.43359375 30.046875 C59.24457076 31.4250919 61.10644665 32.7376311 63 34 C62.34 34 61.68 34 61 34 C61.08428872 41.91904568 61.17912656 49.83786396 61.28752708 57.75661278 C61.33752552 61.43340641 61.38385493 65.11017082 61.421875 68.78710938 C61.45868346 72.33393703 61.50503067 75.88052221 61.55806351 79.4271431 C61.57663122 80.7819151 61.59173038 82.13673913 61.60334396 83.49158859 C61.62016509 85.38560856 61.65033616 87.27949588 61.68115234 89.17333984 C61.69447601 90.25255707 61.70779968 91.33177429 61.7215271 92.44369507 C61.74800507 95.1655864 61.74800507 95.1655864 64 97 C62.3125 97.8046875 62.3125 97.8046875 60 98 C57.625 96.0078125 57.625 96.0078125 55 93.125 C50.15845821 87.95485055 45.02574862 83.84401396 39.23828125 79.77734375 C38.49964844 79.19082031 37.76101562 78.60429687 37 78 C37 77.34 37 76.68 37 76 C36.13246094 75.74605469 35.26492187 75.49210937 34.37109375 75.23046875 C30.87243621 73.95343848 28.1730732 72.35018566 25.0625 70.3125 C18.99124141 66.42653684 12.6895274 63.38290253 6.1171875 60.4453125 C3 59 3 59 0 57 C-0.36076355 54.59555054 -0.36076355 54.59555054 -0.34057617 51.54052734 C-0.34034958 50.39949554 -0.34012299 49.25846375 -0.33988953 48.08285522 C-0.32440567 46.84637238 -0.30892181 45.60988953 -0.29296875 44.3359375 C-0.28872391 43.07359283 -0.28447906 41.81124817 -0.28010559 40.51065063 C-0.26613137 37.15338649 -0.23917302 33.79673068 -0.20599365 30.43963623 C-0.17531352 27.01449852 -0.1616047 23.58929799 -0.14648438 20.1640625 C-0.11334641 13.4425395 -0.06309539 6.72130489 0 0 Z " fill="#1C4367" transform="translate(113,151)"/>
<path d="M0 0 C0.33 19.47 0.66 38.94 1 59 C4.63 60.65 8.26 62.3 12 64 C14.30637668 65.20133817 16.60108788 66.42579066 18.875 67.6875 C22.52597657 69.71033837 26.08914298 71.53523252 30 73 C30 73.66 30 74.32 30 75 C31.2684375 75.37125 31.2684375 75.37125 32.5625 75.75 C37.18058745 77.42930453 41.3727976 79.36944254 44.89453125 82.8984375 C47.96384944 85.96206122 51.45277684 88.31658233 54.98046875 90.82421875 C57.01171497 92.28787224 59.01452612 93.79172823 60.98828125 95.33203125 C61.94089844 96.06808594 62.89351563 96.80414063 63.875 97.5625 C64.73867187 98.24441406 65.60234375 98.92632812 66.4921875 99.62890625 C68.89854237 101.21435613 68.89854237 101.21435613 71.5625 100.94921875 C74.4676155 99.81789973 75.93320381 98.46605962 78.125 96.25 C85.67104352 89.16780623 94.3843424 83.68513552 103 78 C104.08410156 77.28199219 105.16820312 76.56398438 106.28515625 75.82421875 C116.8640742 68.95933818 128.52452285 61.49509543 141 59 C141 39.53 141 20.06 141 0 C147.75782107 2.70312843 147.75782107 2.70312843 150 5 C150.48101807 7.75248718 150.48101807 7.75248718 150.45410156 11.1237793 C150.45379944 12.38486008 150.45349731 13.64594086 150.45318604 14.94523621 C150.43275946 16.32157013 150.41189548 17.69789761 150.390625 19.07421875 C150.38316348 20.48239845 150.37747013 21.89058855 150.37347412 23.29878235 C150.35821038 27.00294729 150.31892336 30.70648362 150.2746582 34.41040039 C150.23372076 38.19083146 150.21546644 41.97136423 150.1953125 45.75195312 C150.15242883 53.16825516 150.0841698 60.58403946 150 68 C149.18015625 68.32613281 148.3603125 68.65226562 147.515625 68.98828125 C145.89914063 69.64376953 145.89914063 69.64376953 144.25 70.3125 C143.18265625 70.74175781 142.1153125 71.17101562 141.015625 71.61328125 C138.3224789 72.85170983 136.30152652 74.16625295 134 76 C132.52014264 76.63269264 131.01749384 77.21381884 129.5 77.75 C123.25210516 80.1629168 117.6944937 83.50312056 112 87 C111.10410156 87.53496094 110.20820313 88.06992188 109.28515625 88.62109375 C96.55471283 96.4163873 83.08943777 106.4125182 73.41796875 117.875 C72.95003906 118.24625 72.48210937 118.6175 72 119 C67.44516681 118.34764089 64.92115026 115.39809268 61.75 112.3125 C57.03739857 107.84737889 52.31041636 103.74610766 47 100 C46.14921875 99.36578125 45.2984375 98.7315625 44.421875 98.078125 C38.47320624 93.65816442 32.42012086 89.69364199 26 86 C24.90558594 85.34902344 23.81117187 84.69804687 22.68359375 84.02734375 C15.34336299 79.69533767 7.98756446 76.0428817 0 73 C0 72.34 0 71.68 0 71 C-1.0828125 70.814375 -1.0828125 70.814375 -2.1875 70.625 C-4.96009349 70.00886811 -7.38129929 69.08268971 -10 68 C-10.16235411 59.87235432 -10.28664771 51.74538837 -10.3626852 43.61652088 C-10.39918452 39.84166416 -10.44866738 36.06791842 -10.52807617 32.29370117 C-10.60426466 28.64964112 -10.64601514 25.00664779 -10.6641407 21.36185265 C-10.67705278 19.97306205 -10.70226974 18.58432845 -10.7401104 17.19599342 C-11.02364697 6.36010567 -11.02364697 6.36010567 -8.5005188 3.00765991 C-5.68738324 0.8861387 -3.52473622 0 0 0 Z " fill="#1E3F5D" transform="translate(104,157)"/>
<path d="M0 0 C-0.00112793 0.94842773 -0.00225586 1.89685547 -0.00341797 2.87402344 C0.00652089 6.40102111 0.04309961 9.92566754 0.09765625 13.45214844 C0.11579913 14.97679846 0.12338779 16.50161273 0.12011719 18.02636719 C0.11725457 20.22199104 0.15261171 22.41422194 0.1953125 24.609375 C0.20578613 25.92905273 0.21625977 27.24873047 0.22705078 28.60839844 C0.68381035 32.25920639 0.68381035 32.25920639 3.98779297 34.33691406 C4.98182129 34.88573242 5.97584961 35.43455078 7 36 C8.17426264 38.34852528 8.11508173 39.73774065 8.09765625 42.3515625 C8.09443359 43.20234375 8.09121094 44.053125 8.08789062 44.9296875 C8.07951172 45.81914062 8.07113281 46.70859375 8.0625 47.625 C8.05798828 48.5221875 8.05347656 49.419375 8.04882812 50.34375 C8.03702591 52.56256648 8.02056155 54.78125018 8 57 C4.24023438 58.12451172 4.24023438 58.12451172 2.078125 57.00390625 C1.17320312 56.29041016 1.17320312 56.29041016 0.25 55.5625 C-0.36359375 55.08941406 -0.9771875 54.61632812 -1.609375 54.12890625 C-2.06828125 53.75636719 -2.5271875 53.38382813 -3 53 C-3.47050781 53.37253906 -3.94101562 53.74507812 -4.42578125 54.12890625 C-5.04839844 54.60199219 -5.67101562 55.07507813 -6.3125 55.5625 C-7.23482422 56.27599609 -7.23482422 56.27599609 -8.17578125 57.00390625 C-9.07876953 57.49697266 -9.07876953 57.49697266 -10 58 C-10.99 57.67 -11.98 57.34 -13 57 C-13.10876982 54.14479219 -13.18766466 51.29379439 -13.25 48.4375 C-13.28351563 47.63763672 -13.31703125 46.83777344 -13.3515625 46.01367188 C-13.44744126 40.14109807 -12.31241405 36.85777258 -9 32 C-8.01 32 -7.02 32 -6 32 C-6.02618408 31.20827393 -6.05236816 30.41654785 -6.0793457 29.60083008 C-6.18344122 26.00492283 -6.248369 22.40933269 -6.3125 18.8125 C-6.3753418 16.94368164 -6.3753418 16.94368164 -6.43945312 15.03710938 C-6.56048311 6.00827254 -6.56048311 6.00827254 -4.89990234 3.02099609 C-1.93858025 0 -1.93858025 0 0 0 Z " fill="#376DA6" transform="translate(275,114)"/>
<path d="M0 0 C0 1.98 0 3.96 0 6 C-1.01578125 6.49628906 -2.0315625 6.99257812 -3.078125 7.50390625 C-15.02700542 13.37992676 -26.41556661 19.40697835 -36.81323242 27.80029297 C-40.80448514 31 -40.80448514 31 -43 31 C-43.28954167 28.08610196 -43.48904441 25.84498587 -43 23 C-40.98396042 20.8283818 -39.56944662 19.64095887 -37.125 18.125 C-36.50729736 17.71499756 -35.88959473 17.30499512 -35.25317383 16.88256836 C-30.18384712 13.58590872 -24.94582386 10.54600088 -19.6875 7.5625 C-18.95998535 7.1495166 -18.2324707 6.7365332 -17.48291016 6.31103516 C-5.95829784 0 -5.95829784 0 0 0 Z " fill="#E9ECEF" transform="translate(225,168)"/>
<path d="M0 0 C0 2.31 0 4.62 0 7 C-0.87140625 7.47308594 -1.7428125 7.94617188 -2.640625 8.43359375 C-10.04412811 12.52109688 -16.81699364 16.88075938 -23.4765625 22.1171875 C-25.61230926 23.7107323 -27.57688501 24.91926796 -30 26 C-30.73061886 22.65133022 -31.01591449 21.19667334 -30 18 C-26.4439043 14.38118656 -22.27011137 11.70109371 -18 9 C-17.40203613 8.61714844 -16.80407227 8.23429688 -16.18798828 7.83984375 C-3.88009799 0 -3.88009799 0 0 0 Z " fill="#EAEDF0" transform="translate(212,188)"/>
<path d="M0 0 C0 19.47 0 38.94 0 59 C-0.33 59 -0.66 59 -1 59 C-1.33 40.19 -1.66 21.38 -2 2 C-7.30196233 6.9590199 -7.30196233 6.9590199 -7.65942383 13.16723633 C-7.67906693 14.38812454 -7.69871002 15.60901276 -7.71894836 16.86689758 C-7.71501572 18.17539169 -7.71108307 19.4838858 -7.70703125 20.83203125 C-7.72015435 22.19254259 -7.73546047 23.55303447 -7.75285339 24.91349792 C-7.79264649 28.48263865 -7.80288999 32.05126909 -7.80688477 35.62060547 C-7.81622721 39.26740951 -7.85364751 42.91391506 -7.88867188 46.56054688 C-7.95318891 53.70698722 -7.9864771 60.85326643 -8 68 C-8.66 68 -9.32 68 -10 68 C-10.16235411 59.87235432 -10.28664771 51.74538837 -10.3626852 43.61652088 C-10.39918452 39.84166416 -10.44866738 36.06791842 -10.52807617 32.29370117 C-10.60426466 28.64964112 -10.64601514 25.00664779 -10.6641407 21.36185265 C-10.67705278 19.97306205 -10.70226974 18.58432845 -10.7401104 17.19599342 C-11.02364697 6.36010567 -11.02364697 6.36010567 -8.5005188 3.00765991 C-5.68738324 0.8861387 -3.52473622 0 0 0 Z " fill="#567188" transform="translate(104,157)"/>
<path d="M0 0 C0.5625 3.0625 0.5625 3.0625 0 7 C-2.69174335 9.77384445 -5.82343511 11.81837877 -9 14 C-10.15847273 14.96417961 -11.30651345 15.94122152 -12.4375 16.9375 C-15 19 -15 19 -17 19 C-17.81204014 12.08648398 -17.81204014 12.08648398 -15.73583984 9.30859375 C-13.95815983 7.73754917 -12.13131761 6.35971478 -10.1875 5 C-9.54490234 4.51144531 -8.90230469 4.02289063 -8.24023438 3.51953125 C-3.48344494 0 -3.48344494 0 0 0 Z " fill="#DFE4E8" transform="translate(199,210)"/>
<path d="M0 0 C0.99 0.33 1.98 0.66 3 1 C2.34 1.66 1.68 2.32 1 3 C0.72082705 6.20813626 0.72082705 6.20813626 0.8046875 9.9765625 C0.8075174 10.66181 0.81034729 11.3470575 0.81326294 12.05307007 C0.82446719 14.24389027 0.84957141 16.43430316 0.875 18.625 C0.88502952 20.1093691 0.89415542 21.5937446 0.90234375 23.078125 C0.92440706 26.71888261 0.95893824 30.35940156 1 34 C0.01 33.67 -0.98 33.34 -2 33 C-2 22.44 -2 11.88 -2 1 C-1.34 0.67 -0.68 0.34 0 0 Z " fill="#BFD4E7" transform="translate(277,113)"/>
<path d="M0 0 C2.475 0.495 2.475 0.495 5 1 C4.01 1.66 3.02 2.32 2 3 C1.52306814 5.37822507 1.52306814 5.37822507 1.56762695 8.18408203 C1.54783279 9.26505157 1.52803864 10.34602112 1.50764465 11.45974731 C1.49805977 13.21603958 1.49805977 13.21603958 1.48828125 15.0078125 C1.47033005 16.20356903 1.45237885 17.39932556 1.43388367 18.63131714 C1.37956325 22.46250853 1.34581467 26.29357383 1.3125 30.125 C1.2793462 32.71746555 1.24485838 35.30991441 1.20898438 37.90234375 C1.12382432 44.26811609 1.0555668 50.63390432 1 57 C0.67 57 0.34 57 0 57 C0 38.19 0 19.38 0 0 Z " fill="#355878" transform="translate(113,151)"/>
<path d="M0 0 C0.66 0.33 1.32 0.66 2 1 C0.515 2.299375 0.515 2.299375 -1 3.625 C-3.53414634 6.12345413 -3.96317186 6.66854671 -4.375 10.375 C-4.25125 11.24125 -4.1275 12.1075 -4 13 C-4.66 13 -5.32 13 -6 13 C-6.7230444 5.89006342 -6.7230444 5.89006342 -4.6640625 3.35546875 C-3 2 -3 2 0 0 Z " fill="#C2CCD4" transform="translate(188,201)"/>
</svg>
